<svg xmlns="http://www.w3.org/2000/svg" viewBox="0 0 512 512" role="img" aria-label="Puzzleando Studio">
  <defs>
    <linearGradient id="puzzle-gradient" x1="64" y1="56" x2="452" y2="454" gradientUnits="userSpaceOnUse">
      <stop stop-color="#7c3aed" />
      <stop offset="1" stop-color="#2563eb" />
    </linearGradient>
  </defs>
  <rect width="512" height="512" rx="116" fill="url(#puzzle-gradient)" />
  <path
    d="M146 136h83c21 0 38 17 38 38v20c0 24 18 42 42 42s42-18 42-42v-20c0-21 17-38 38-38h20c21 0 38 17 38 38v78c0 21-17 38-38 38h-33c-24 0-42 18-42 42s18 42 42 42h33c21 0 38 17 38 38v22c0 21-17 38-38 38H270c-21 0-38-17-38-38v-33c0-24-18-42-42-42s-42 18-42 42v33c0 21-17 38-38 38h-36c-21 0-38-17-38-38V287c0-21 17-38 38-38h31c24 0 42-18 42-42s-18-42-42-42H74c-21 0-38-17-38-38v-3c0-21 17-38 38-38h72Z"
    fill="#fff"
    fill-opacity=".96"
  />
  <path
    d="M146 136h83c21 0 38 17 38 38v20c0 24 18 42 42 42s42-18 42-42v-20c0-21 17-38 38-38h20c21 0 38 17 38 38v78c0 21-17 38-38 38h-33c-24 0-42 18-42 42s18 42 42 42h33c21 0 38 17 38 38v22c0 21-17 38-38 38H270c-21 0-38-17-38-38v-33c0-24-18-42-42-42s-42 18-42 42v33c0 21-17 38-38 38h-36c-21 0-38-17-38-38V287c0-21 17-38 38-38h31c24 0 42-18 42-42s-18-42-42-42H74c-21 0-38-17-38-38v-3c0-21 17-38 38-38h72Z"
    fill="none"
    stroke="rgba(255,255,255,.18)"
    stroke-width="10"
  />
</svg>
