<svg xmlns="http://www.w3.org/2000/svg" viewBox="0 0 512 512" role="img" aria-label="Puzzleando">
  <rect width="512" height="512" rx="104" fill="#7c3aed"/>
  <g fill="#fff">
    <path d="M94 92h132v122H94a26 26 0 0 1-26-26v-70a26 26 0 0 1 26-26Z" opacity=".92"/>
    <path d="M286 92h132a26 26 0 0 1 26 26v70a26 26 0 0 1-26 26H286V92Z" opacity=".72"/>
    <path d="M94 298h132v122H94a26 26 0 0 1-26-26v-70a26 26 0 0 1 26-26Z" opacity=".72"/>
    <path d="M286 298h132a26 26 0 0 1 26 26v70a26 26 0 0 1-26 26H286V298Z" opacity=".92"/>
    <circle cx="256" cy="256" r="58"/>
  </g>
</svg>
